<svg width="307" height="314" viewBox="0 0 307 314" fill="none" xmlns="http://www.w3.org/2000/svg">
<path d="M42.9689 49.2943C68.6698 10.2688 138.643 -5.52086 181.941 1.69765C220.486 8.11973 269.726 34.3011 286.3 70.5453C286.3 70.5453 307.108 124.476 243.343 119.254C218.299 117.206 193.711 111.025 170.981 100.216C134.231 82.7321 91.8929 74.3632 52.1721 87.6877C42.5264 90.924 33.4369 95.6647 25.2702 101.745C20.5801 105.235 16.1934 109.141 12.1353 113.351C9.61959 115.955 0.138184 124.185 0.138184 127.826C0.138184 127.826 7.28084 74.5275 65.345 52.6318C107.973 36.5513 147.795 38.9406 189.337 58.5861C201.22 64.1991 213.002 70.2798 225.644 74.085C232.976 76.2847 255.77 83.5159 260.649 74.7298C265.049 66.816 251.648 52.5054 245.846 48.4726C203.597 19.1182 153.863 7.75311 103.852 21.2546C82.7276 26.9561 60.5284 35.8686 42.9689 49.2943Z" fill="white"/>
<path d="M306.228 184.469C306.228 184.469 283.384 241.585 193.905 226.832C166.674 222.344 141.656 214 116.448 203.052C95.1465 193.798 72.1762 185.328 48.5738 188.893C31.3302 191.498 15.1866 201.03 16.5772 220.599C18.7137 250.611 44.2123 274.782 68.3836 289.586C119.735 321.014 202.122 323.416 248.796 281.255C249.883 280.269 251.16 278.411 252.449 277.766C252.449 277.766 198.671 304.895 149.646 296.804C100.62 288.714 45.8937 263.493 49.2185 247.779C52.2399 233.519 66.5252 234.632 76.5376 240.46C106.195 257.754 141.846 268.74 176.295 269.662C203.386 270.383 232.235 266.628 256.394 253.064C283.258 237.982 295.242 211.952 306.228 184.469Z" fill="white"/>
<path d="M6.79999 217.759C6.79999 217.759 -13.1868 174.928 15.3712 143.513C43.9292 112.098 83.9028 107.812 115.318 114.955C146.733 122.098 184.798 156.838 242.394 149.695C299.99 142.552 298.082 123.514 299.03 115.423C299.03 115.423 319.965 175.396 255.719 194.422C191.473 213.448 129.603 179.189 129.603 179.189C129.603 179.189 -1.75856 122.553 6.81263 217.734L6.79999 217.759Z" fill="white"/>
</svg>
